<svg xmlns="http://www.w3.org/2000/svg"  ><path d="M25 2C12.31 2 2 12.31 2 25s10.31 23 23 23 23-10.31 23-23S37.69 2 25 2zm0 2c11.61 0 21 9.39 21 21s-9.39 21-21 21S4 36.61 4 25 13.39 4 25 4zm0 4c-3.86 0-7 2.968-7 6.615 0 3.546 3.284 7.569 6.357 10.15a.995.995 0 0 0 .643.233.99.99 0 0 0 .643-.234C28.716 22.182 32 18.16 32 14.615 32 10.97 28.859 8.001 25 8zm-9.57 17.008c-1.566.04-3.023.34-4.186 1.004-1.489.85-2.557 2.254-3.012 3.949-.483 1.8-.206 3.782.76 5.44 1.338 2.295 3.73 3.597 6.13 3.597 1.092 0 2.188-.27 3.187-.84 3.106-1.777 4.967-6.638 5.675-10.597a1 1 0 0 0-.644-1.118c-2.383-.856-5.3-1.503-7.91-1.435zm19.142 0c-2.61-.068-5.527.58-7.91 1.435a1 1 0 0 0-.646 1.118c.707 3.959 2.57 8.822 5.675 10.597.998.57 2.094.84 3.188.84 2.399 0 4.79-1.3 6.13-3.598.967-1.657 1.243-3.638.76-5.44-.453-1.695-1.524-3.097-3.013-3.948-1.163-.665-2.618-.963-4.184-1.004z"/></svg>
