<svg xmlns="http://www.w3.org/2000/svg" width="50" height="50"><path d="M39.08 1.002c-.352 0-.712.046-1.068.146L3.793 10.773a3.843 3.843 0 0 0-2.328 1.832 3.693 3.693 0 0 0-.315 2.829l.63 2.556a1 1 0 0 0 .032.104 1 1 0 0 0 .004.035L6.33 45.83C6.627 47.663 8.247 49 10.115 49c.204 0 .408-.017.612-.049l7.605-1.193 27.434-4.291a3.844 3.844 0 0 0 2.523-1.537c.58-.801.82-1.8.662-2.774l-4.515-27.713a1 1 0 0 0-1.143-.828l-27.62 4.326 26.999-8.05a1 1 0 0 0 .674-1.243l-.573-1.925c-.484-1.654-2.029-2.721-3.693-2.721zm0 2c.814 0 1.548.51 1.774 1.281a1 1 0 0 0 .001.004l.278.942-3.947-1.77 1.369-.385c.176-.05.35-.072.525-.072zm-7.555 2.049 4.11 1.851-5.52 1.647-4.265-1.903 5.675-1.595zM20.188 8.24l4.376 1.962-5.53 1.65-4.499-2.023 5.652-1.59zM8.85 11.43l4.642 2.076-5.537 1.65-4.432-1.98c.219-.22.487-.386.811-.477l4.516-1.27zm33.771 1.316L46.98 39.48c.073.455-.032.894-.31 1.277a1.807 1.807 0 0 1-1.212.734l-27.434 4.291-7.607 1.196a1 1 0 0 0-.002 0c-.098.015-.2.023-.299.023-.936 0-1.67-.623-1.81-1.49L4.459 21.912l3.252-3.701 5.812-.91-3.373 3.84 5.83-.91 3.366-3.842 5.797-.907-3.364 3.838 5.81-.91 3.374-3.84 5.805-.908L33.41 17.5l5.8-.91h.01l3.364-3.838.037-.006zm-1.947 5.647a1 1 0 0 0-.164.011L7.77 23.537a1 1 0 0 0-.832 1.149l3.148 19.312a1 1 0 0 0 1.14.828l32.743-5.125a1 1 0 0 0 .832-1.148l-3.149-19.32a1 1 0 0 0-.978-.84zm-.836 2.142 2.826 17.346-30.766 4.816-2.826-17.34 30.766-4.822z"/></svg>
