<svg xmlns="http://www.w3.org/2000/svg" width="32" height="32"><path d="M22.553 2.105a9.948 9.948 0 0 0-3.063 2.37 6.834 6.834 0 0 0-1.082 1.687 6.705 6.705 0 0 0-.722-.224l.015-.016C16.608 4.852 14.94 4 13 4c-1.82 0-3.641.809-5.02 1.928-.689.56-1.27 1.202-1.65 1.935-.38.733-.56 1.61-.28 2.453.26.78.736 1.396 1.345 1.73-.52.93-1.169 2.299-1.385 3.813-.518 3.626-.272 6.768.54 9.207.814 2.44 2.222 4.246 4.134 4.883 1.145.382 2.364.078 3.597-.496 1.234-.573 2.515-1.468 3.76-2.582 2.49-2.227 4.83-5.317 5.908-8.555.136-.408.13-.422.219-.724.134.03.27.062.416.07.755.042 1.505-.337 2.123-.955.637-.637.868-1.506.877-2.355.01-.85-.19-1.727-.53-2.584-.676-1.715-1.891-3.377-3.575-4.198h-.002c-1.066-.518-2.18-.688-3.215-.646.171-.38.423-.77.748-1.149.648-.756 1.557-1.44 2.437-1.88l-.894-1.79zM13 6c.496 0 .966.109 1.414.256-.023.013-.048.021-.07.035-1.21.73-1.856 2.06-2.04 3.504-1.254.049-2.333.417-3.077.533-.458.072-.739.042-.862-.014-.123-.055-.248-.127-.416-.63-.072-.218-.053-.495.156-.899.21-.403.611-.879 1.135-1.305C10.29 6.63 11.82 6 13 6zm3.48 1.742c.464.02 1.035.169 1.745.518 1.858.915 2.26 1.611 2.298 2.094.038.482-.371 1.268-1.154 2.207-1.092 1.307-1.926 2.11-2.525 2.431-.6.322-.92.332-1.676-.015-.695-.32-.867-.601-1-1.348-.133-.747-.055-1.938.105-3.479.11-1.064.536-1.803 1.104-2.146.284-.171.64-.282 1.103-.262zm5.791 1.498c.11.043.223.077.33.13v-.003c1.013.494 2.068 1.807 2.592 3.135.262.664.396 1.323.391 1.828-.006.506-.137.81-.291.963-.382.382-.506.378-.598.373-.091-.005-.34-.098-.722-.395-.596-.46-1.414-1.308-2.569-2.062.666-.88 1.204-1.847 1.114-3.012a2.974 2.974 0 0 0-.247-.957zm-10.146 2.582c-.044.768-.045 1.49.074 2.157.21 1.178.934 2.263 2.133 2.814 1.14.524 2.395.53 3.457-.04.802-.43 1.52-1.094 2.315-1.982.87.543 1.579 1.192 2.289 1.782-.084.297-.128.487-.342 1.13-.921 2.763-3.082 5.673-5.342 7.696-1.13 1.011-2.286 1.804-3.271 2.262-.986.457-1.767.528-2.122.41-1.088-.363-2.18-1.557-2.867-3.617-.687-2.06-.94-4.919-.459-8.293.223-1.56 1.24-3.29 1.584-3.844.89-.143 1.75-.388 2.551-.475z"/></svg>
