<svg xmlns="http://www.w3.org/2000/svg" viewBox="4 3 48 48" fill="currentColor"  ><path d="M9 4C6.25 4 4 6.25 4 9v32c0 2.75 2.25 5 5 5h32c2.75 0 5-2.25 5-5V9c0-2.75-2.25-5-5-5H9zm0 2h31.59l-9.787 9.81c-.448-.173-.623-.383-.748-.644-.154-.322-.202-.822-.174-1.396.028-.575.136-1.168.084-1.82-.026-.327-.091-.718-.395-1.089-.303-.37-.836-.566-1.275-.566-1.347 0-2.425.518-3.117 1.266-.693.747-1.044 1.631-1.362 2.425-.317.794-.603 1.508-.959 1.979-.356.471-.706.743-1.484.838a1 1 0 0 0-.014.002c-2.115.288-4.656.367-7.172 2.883-2.116 2.116-3.323 4.842-3.253 7.744.059 2.472 1.05 5.033 3.037 7.433a1 1 0 0 0 .238.358c.15.15.305.28.457.422.142.152.272.306.422.457a1 1 0 0 0 .36.238c2.4 1.985 4.96 2.98 7.43 3.039 2.902.07 5.629-1.14 7.745-3.256 2.515-2.515 2.594-5.056 2.883-7.172a1 1 0 0 0 .002-.014c.095-.777.367-1.126.838-1.482.47-.356 1.184-.643 1.978-.96.794-.318 1.678-.668 2.426-1.36.748-.693 1.266-1.772 1.266-3.12 0-.439-.196-.971-.567-1.275-.37-.303-.761-.368-1.088-.394-.652-.053-1.244.056-1.818.084-.574.028-1.076-.02-1.398-.174a1.127 1.127 0 0 1-.563-.56L44 10.392V41c0 1.668-1.332 3-3 3H9c-1.668 0-3-1.332-3-3V9c0-1.668 1.332-3 3-3zm33.805.611c.414.313.75.723.955 1.207L32.896 18.547a1 1 0 0 0-.334.33l-1.142 1.129-.99-.99L42.805 6.61zm-14.852 5.813c-.01.304-.043.688-.07 1.248-.035.7-.026 1.536.367 2.357.225.471.61.892 1.104 1.233l-1.045 1.049a1 1 0 0 0 0 1.412l2.4 2.4a1 1 0 0 0 1.41.004l1.027-1.014c.323.421.712.745 1.135.948.822.392 1.659.401 2.36.367.56-.028.941-.06 1.246-.07-.074.562-.185 1.02-.496 1.308-.393.364-1.04.663-1.809.97-.768.308-1.647.623-2.441 1.223a4.152 4.152 0 0 0-1.618 2.836c-.309 2.277-.234 3.934-2.314 6.014-1.784 1.784-3.958 2.725-6.281 2.67-2.18-.052-4.537-1.001-6.85-3.147-2.145-2.312-3.094-4.669-3.146-6.85-.056-2.323.886-4.497 2.67-6.28 2.08-2.08 3.738-2.006 6.013-2.315a4.155 4.155 0 0 0 2.838-1.615c.6-.795.913-1.675 1.22-2.443.308-.769.608-1.416.972-1.81.288-.31.746-.421 1.308-.495zm-2.79 8.154-1.485 1.485 4.384 4.384 1.485-1.484-4.385-4.385zm-4.194 4.082-1.487 1.486 4.385 4.383 1.485-1.484-4.383-4.385z"/></svg>
